<svg id="Layer_1" data-name="Layer 1" xmlns="http://www.w3.org/2000/svg" viewBox="0 0 740.5 290"><defs><style>.cls-1{fill:#e5494c;}.cls-2{fill:none;}.cls-3{fill:#fff;}</style></defs><rect class="cls-1" width="287.68" height="290.09"/><rect class="cls-2" x="287.61" width="452.89" height="290.09"/><path class="cls-1" d="M381.77,177.12h12.3l-19.81,39.73H364.19l-19.62-39.73h12.26l12.44,28.59Z"/><path class="cls-1" d="M443.48,196.34l-.19,2.43H407.68a10.59,10.59,0,0,0,4,8.18,14.53,14.53,0,0,0,9.14,2.84,14.27,14.27,0,0,0,6.73-1.53,10.42,10.42,0,0,0,4.45-4.39l10.63,1.45a18.06,18.06,0,0,1-8.2,9.06,27.27,27.27,0,0,1-13.52,3.26q-11.24,0-17.95-5.49T396.26,197q0-9.6,6.74-15.16t17.55-5.55a31.46,31.46,0,0,1,9.11,1.24,21.64,21.64,0,0,1,7.22,3.65,16.05,16.05,0,0,1,4.83,6.27A22.12,22.12,0,0,1,443.48,196.34Zm-22.89-13a14.42,14.42,0,0,0-8.29,2.22,10.37,10.37,0,0,0-4.25,6.65h23.87a9,9,0,0,0-3.52-6.59A12.72,12.72,0,0,0,420.59,183.35Z"/><path class="cls-1" d="M480.58,176.33q8.12,0,12.63,3.59t4.52,10.18v26.75H486.08V192.22q0-4.08-2.54-6a10.5,10.5,0,0,0-6.5-1.93,12.15,12.15,0,0,0-7.81,2.44c-2,1.62-3.07,4.15-3.1,7.61v22.51H454.48V177.12h11.65v4.59Q471.22,176.33,480.58,176.33Z"/><path class="cls-1" d="M528.35,216.85q-6.57,0-10.2-3.12c-2.43-2.07-3.64-5-3.64-8.76V184.69h-9.37v-7.57h3.17c2.58,0,4.46-.53,5.64-1.57s1.77-2.89,1.77-5.53v-5.85H526.3v13h10.07v7.57H526.3v19.22a5.15,5.15,0,0,0,1.54,4.06,6.3,6.3,0,0,0,4.29,1.35h4.24v7.53Z"/><path class="cls-1" d="M577.85,177.12h11.66v39.73h-11l-.33-4.9a15.26,15.26,0,0,1-6.17,4.22,23.59,23.59,0,0,1-8.55,1.47q-8.16,0-12.66-3.59t-4.5-10.18V177.12h11.66v24.63c0,2.69.84,4.69,2.54,6a10.42,10.42,0,0,0,6.54,1.94,12.07,12.07,0,0,0,7.79-2.43q3-2.43,3.07-7.61Z"/><path class="cls-1" d="M615.42,183.63a13.85,13.85,0,0,1,6.08-4.92,21.56,21.56,0,0,1,9.21-2.06v8.86c-5.07,0-8.79.86-11.19,2.57s-3.59,4.65-3.59,8.81v20H604.24V177.12h11.18Z"/><path class="cls-1" d="M682.17,196.34l-.19,2.43H646.37a10.59,10.59,0,0,0,4,8.18,14.52,14.52,0,0,0,9.13,2.84,14.28,14.28,0,0,0,6.74-1.53,10.42,10.42,0,0,0,4.45-4.39l10.63,1.45a18.06,18.06,0,0,1-8.2,9.06,27.27,27.27,0,0,1-13.52,3.26q-11.24,0-18-5.49T635,197q0-9.6,6.74-15.16t17.55-5.55a31.46,31.46,0,0,1,9.11,1.24,21.74,21.74,0,0,1,7.22,3.65,16.05,16.05,0,0,1,4.83,6.27A22.29,22.29,0,0,1,682.17,196.34Zm-22.89-13a14.42,14.42,0,0,0-8.29,2.22,10.37,10.37,0,0,0-4.25,6.65h23.87a9,9,0,0,0-3.52-6.59A12.72,12.72,0,0,0,659.28,183.35Z"/><path class="cls-1" d="M709.25,217.64q-8.07,0-13.42-2.83a12,12,0,0,1-6.58-8.23l9.84-2.36a8,8,0,0,0,3.59,4.85,12.59,12.59,0,0,0,6.57,1.59,12.19,12.19,0,0,0,5.43-1.1,3.65,3.65,0,0,0,2.17-3.57,3.72,3.72,0,0,0-.77-2.18,5.79,5.79,0,0,0-2.36-1.59c-1.09-.44-2.11-.8-3.07-1.08s-2.35-.63-4.15-1.06-3.25-.8-4.34-1.11c-1.33-.37-2.51-.74-3.52-1.1a21.85,21.85,0,0,1-3.14-1.47,11.31,11.31,0,0,1-2.66-2,9.12,9.12,0,0,1-1.7-2.73,9.3,9.3,0,0,1-.68-3.59,9.57,9.57,0,0,1,5-8.73q5-3,12.91-3a25.88,25.88,0,0,1,12.12,2.57,11.43,11.43,0,0,1,6.11,7.9l-9.09,1.77q-1.82-5.56-9.09-5.57a11.31,11.31,0,0,0-5.17,1.06,3.36,3.36,0,0,0-2.1,3.14,3.4,3.4,0,0,0,.16,1.08,2.35,2.35,0,0,0,.61.92,7.93,7.93,0,0,0,.86.74,5.68,5.68,0,0,0,1.21.65c.53.22,1,.4,1.35.53s.94.29,1.68.47l1.75.41,1.93.41c.87.19,1.53.33,2,.44,1.74.39,3.22.77,4.45,1.13a32.43,32.43,0,0,1,4.08,1.57,13.6,13.6,0,0,1,3.59,2.26,10.58,10.58,0,0,1,2.31,3.19,10,10,0,0,1,.95,4.4,10.63,10.63,0,0,1-1,4.67,9.86,9.86,0,0,1-2.75,3.47,15.28,15.28,0,0,1-4.17,2.31,25.07,25.07,0,0,1-5.11,1.34A38.41,38.41,0,0,1,709.25,217.64Z"/><path class="cls-1" d="M423.31,151l-7.62-18H372.92l-7.61,18H346.83l36.54-83.13h21.87L441.72,151Zm-45-30.8h32l-16-37.88Z"/><path class="cls-1" d="M498.27,67.85q13.85,0,22.35,7.63a24.28,24.28,0,0,1,8.52,18.83A23.66,23.66,0,0,1,520.66,113q-8.49,7.38-22.39,7.37H476.19V151h-18V67.85Zm-2.91,39.8c5.31,0,9.35-1.22,12.15-3.66a12.48,12.48,0,0,0,4.18-9.92,12.4,12.4,0,0,0-4.22-9.8q-4.22-3.7-12.11-3.71H476.19v27.09Z"/><path class="cls-1" d="M600.77,151l-25.68-36.89H566V151H548V67.85h35A47.54,47.54,0,0,1,597,69.74,25.44,25.44,0,0,1,606.76,75a22.12,22.12,0,0,1,5.54,7.74,24.28,24.28,0,0,1,1.83,9.51,18.32,18.32,0,0,1-5.43,13.61q-5.44,5.37-16,7.22L622,151ZM566,80.56V102h14.19q8.5,0,12.63-2.84A9,9,0,0,0,597,91.35a9.16,9.16,0,0,0-4.12-7.89q-4.12-2.91-12.63-2.9Z"/><path class="cls-1" d="M639.12,151V67.85h18V151Z"/><path class="cls-1" d="M702.52,137.58H734.7V151H684.52V67.85h18Z"/><polygon class="cls-3" points="131.95 76.13 149.75 76.13 80 196.99 97.92 196.67 158.35 91.48 228.58 211.94 175.83 211.82 149.59 166.46 158.59 151.35 184.71 196.75 201.9 196.75 158.11 121.11 106.57 211.91 53.64 211.91 131.95 76.13"/></svg>